<svg xmlns="http://www.w3.org/2000/svg" version="1.1" xmlns:xlink="http://www.w3.org/1999/xlink" viewBox="0 0 200 200"><rect width="200" height="200" fill="url('#gradient')"></rect><defs><linearGradient id="gradient" gradientTransform="rotate(45 0.5 0.5)"><stop offset="0%" stop-color="#94f5ff"></stop><stop offset="100%" stop-color="#478a29"></stop></linearGradient></defs><g><g fill="#16274d" transform="matrix(1.5691081826539994,0,0,1.5691081826539994,23.315613205543215,111.62147250308459)" stroke="#fefefe" stroke-width="0"><path d="M1.07-14.22L5.58-14.22L8.75-4.33L11.91-14.22L16.43-14.22L16.43 0L12.99 0L12.99-3.32L13.32-10.12L9.88 0L7.62 0L4.17-10.13L4.50-3.32L4.50 0L1.07 0L1.07-14.22ZM23.56 0.20L23.56 0.20Q21.13 0.20 19.63-1.25Q18.13-2.71 18.13-5.03L18.13-5.03L18.13-5.30Q18.13-6.92 18.73-8.16Q19.33-9.40 20.48-10.08Q21.63-10.76 23.21-10.76L23.21-10.76Q25.44-10.76 26.73-9.38Q28.02-8.00 28.02-5.53L28.02-5.53L28.02-4.25L21.47-4.25Q21.65-3.36 22.25-2.85Q22.84-2.34 23.79-2.34L23.79-2.34Q25.35-2.34 26.23-3.44L26.23-3.44L27.73-1.66Q27.12-0.81 25.99-0.31Q24.86 0.20 23.56 0.20ZM23.19-8.22L23.19-8.22Q21.75-8.22 21.47-6.31L21.47-6.31L24.79-6.31L24.79-6.56Q24.81-7.35 24.39-7.79Q23.97-8.22 23.19-8.22ZM28.93-5.36L28.93-5.36Q28.93-7.87 30.01-9.32Q31.09-10.76 33.04-10.76L33.04-10.76Q34.45-10.76 35.42-9.65L35.42-9.65L35.42-15L38.72-15L38.72 0L35.76 0L35.60-1.13Q34.58 0.20 33.02 0.20L33.02 0.20Q31.13 0.20 30.03-1.25Q28.93-2.70 28.93-5.36ZM32.23-5.76L32.22-5.16Q32.22-2.34 33.86-2.34L33.86-2.34Q34.95-2.34 35.42-3.26L35.42-3.26L35.42-7.29Q34.97-8.22 33.88-8.22L33.88-8.22Q32.35-8.22 32.23-5.76L32.23-5.76ZM44.06-10.57L44.06 0L40.76 0L40.76-10.57L44.06-10.57ZM40.57-13.29L40.57-13.29Q40.57-13.99 41.07-14.44Q41.58-14.89 42.39-14.89Q43.20-14.89 43.71-14.44Q44.22-13.99 44.22-13.29Q44.22-12.59 43.71-12.14Q43.20-11.69 42.39-11.69Q41.58-11.69 41.07-12.14Q40.57-12.59 40.57-13.29ZM57.40-14.22L57.40-11.57L53.13-11.57L53.13 0L49.71 0L49.71-11.57L45.52-11.57L45.52-14.22L57.40-14.22ZM64.51-10.64L64.45-7.59L63.37-7.67Q61.82-7.67 61.38-6.69L61.38-6.69L61.38 0L58.09 0L58.09-10.57L61.17-10.57L61.28-9.21Q62.11-10.76 63.59-10.76L63.59-10.76Q64.12-10.76 64.51-10.64L64.51-10.64ZM74.59 0L71.30 0Q71.12-0.32 70.99-0.95L70.99-0.95Q70.08 0.20 68.45 0.20L68.45 0.20Q66.95 0.20 65.91-0.71Q64.86-1.61 64.86-2.98L64.86-2.98Q64.86-4.70 66.13-5.58Q67.40-6.46 69.82-6.46L69.82-6.46L70.84-6.46L70.84-7.01Q70.84-8.47 69.58-8.47L69.58-8.47Q68.41-8.47 68.41-7.31L68.41-7.31L65.12-7.31Q65.12-8.85 66.42-9.80Q67.72-10.76 69.75-10.76Q71.77-10.76 72.94-9.78Q74.11-8.79 74.14-7.07L74.14-7.07L74.14-2.39Q74.16-0.94 74.59-0.17L74.59-0.17L74.59 0ZM69.24-2.15L69.24-2.15Q69.85-2.15 70.26-2.41Q70.66-2.68 70.84-3.01L70.84-3.01L70.84-4.70L69.88-4.70Q68.16-4.70 68.16-3.15L68.16-3.15Q68.16-2.71 68.47-2.43Q68.77-2.15 69.24-2.15ZM80.43-2.34L80.43-2.34Q81.12-2.34 81.50-2.72Q81.88-3.10 81.88-3.77L81.88-3.77L84.96-3.77Q84.96-2.03 83.72-0.92Q82.47 0.20 80.51 0.20L80.51 0.20Q78.20 0.20 76.88-1.25Q75.55-2.70 75.55-5.25L75.55-5.25L75.55-5.39Q75.55-6.99 76.14-8.22Q76.73-9.44 77.84-10.10Q78.96-10.76 80.48-10.76L80.48-10.76Q82.54-10.76 83.75-9.62Q84.96-8.48 84.96-6.52L84.96-6.52L81.88-6.52Q81.88-7.34 81.47-7.78Q81.07-8.22 80.40-8.22L80.40-8.22Q79.12-8.22 78.91-6.59L78.91-6.59Q78.84-6.07 78.84-5.17L78.84-5.17Q78.84-3.57 79.22-2.96Q79.60-2.34 80.43-2.34ZM92.90 0L90.60-3.94L89.67-3.01L89.67 0L86.38 0L86.38-15.01L89.67-15.01L89.67-7.04L90-7.48L92.48-10.57L96.43-10.57L92.72-6.22L96.67 0L92.90 0Z"></path></g></g></svg>